<?xml version="1.0" standalone="no"?>
<!DOCTYPE svg PUBLIC "-//W3C//DTD SVG 20010904//EN"
 "http://www.w3.org/TR/2001/REC-SVG-20010904/DTD/svg10.dtd">
<svg version="1.0" xmlns="http://www.w3.org/2000/svg"
 width="1200.000000pt" height="600.000000pt" viewBox="0 0 1200.000000 600.000000"
 preserveAspectRatio="xMidYMid meet">

<g transform="translate(0.000000,600.000000) scale(0.100000,-0.100000)"
fill="#000000" stroke="none">
<path d="M5465 5234 c-134 -7 -481 -45 -635 -69 -951 -148 -1728 -480 -2170
-926 -181 -182 -310 -389 -349 -559 -5 -25 -15 -66 -20 -92 -35 -152 5 -385
100 -586 52 -112 53 -114 83 -109 17 2 123 21 236 41 230 40 377 59 625 81
295 26 417 30 930 29 594 0 823 -15 1520 -98 508 -61 908 -86 1485 -92 458 -5
523 -2 480 25 -19 13 -108 19 -435 32 -261 9 -521 27 -710 49 -254 29 -357 44
-339 51 71 28 783 69 1199 69 639 0 1190 -47 1712 -146 100 -19 189 -34 197
-34 19 0 105 173 139 280 74 230 51 476 -67 705 -105 205 -330 441 -586 617
-494 339 -1177 572 -2000 682 -284 38 -449 48 -880 51 -245 1 -476 1 -515 -1z
m825 -134 c1134 -59 2102 -390 2623 -899 289 -282 408 -585 357 -911 -11 -66
-56 -218 -70 -233 -4 -4 -108 6 -231 22 -285 38 -447 56 -684 77 -104 9 -193
19 -197 23 -3 3 -3 146 0 316 l7 310 76 5 c108 8 156 43 112 82 -10 9 -189
108 -398 220 -717 386 -817 437 -875 448 -30 6 -269 17 -530 25 -525 17 -971
31 -1333 44 -144 5 -258 5 -289 -1 -39 -7 -172 -76 -542 -282 -270 -150 -556
-308 -636 -351 -162 -88 -180 -100 -180 -126 0 -30 51 -49 130 -49 l70 0 0
-325 c0 -179 -3 -325 -7 -325 -5 0 -98 -7 -208 -15 -199 -16 -460 -48 -693
-85 -67 -11 -129 -20 -138 -20 -39 0 -104 239 -104 385 0 71 26 214 53 290 74
208 252 439 472 610 698 544 1908 832 3215 765z m-934 -668 c124 -64 853 -478
854 -484 0 -16 -86 -7 -130 13 -74 33 -900 493 -900 501 0 17 126 -5 176 -30z
m748 -184 c496 -276 506 -282 478 -286 -14 -2 -116 48 -285 141 -144 80 -344
188 -444 242 -101 53 -183 99 -183 101 0 2 17 4 37 4 29 0 110 -41 397 -202z
m-832 -23 c200 -114 409 -234 466 -268 l102 -60 0 -393 0 -393 -45 -7 c-27 -4
-149 4 -303 20 -439 44 -670 58 -1102 62 -228 3 -421 5 -427 4 -10 0 -13 79
-13 364 0 279 3 366 13 373 6 6 116 68 242 138 127 71 329 184 450 252 121 68
228 121 237 119 9 -2 180 -97 380 -211z m964 176 c43 -21 178 -96 299 -165
121 -70 284 -159 362 -199 89 -44 138 -74 131 -79 -28 -17 -102 18 -474 224
-133 73 -291 158 -352 188 -61 30 -111 58 -111 63 -2 19 73 3 145 -32z m476
-45 c73 -36 221 -116 328 -177 107 -61 239 -133 292 -159 53 -26 94 -51 91
-54 -20 -19 -91 12 -402 178 -191 101 -388 205 -438 230 -51 25 -93 49 -93 52
0 4 20 4 45 2 28 -4 96 -31 177 -72z m259 40 c24 -13 168 -90 319 -171 151
-81 280 -151 285 -155 6 -4 48 -27 95 -51 72 -37 81 -44 58 -47 -32 -4 -105
32 -398 198 -124 70 -272 153 -330 185 -122 66 -120 65 -93 65 11 0 40 -11 64
-24z m869 -793 c0 -115 -3 -252 -7 -306 l-6 -97 -226 2 -226 3 -5 178 -5 179
-30 24 c-46 37 -119 55 -245 61 -131 6 -228 -10 -313 -51 -111 -53 -117 -67
-117 -260 l0 -155 -37 -10 c-21 -5 -81 -12 -133 -16 -52 -4 -149 -13 -215 -21
-66 -7 -135 -14 -154 -14 l-34 0 7 273 c3 149 9 302 13 339 l6 68 431 3 c237
1 626 3 864 5 l432 2 0 -207z"/>
<path d="M4560 3748 l-25 -14 0 -208 0 -209 25 -18 c23 -17 52 -18 308 -20
172 -1 287 2 293 8 5 5 11 100 14 210 4 220 5 218 -56 242 -15 5 -141 13 -280
16 -203 5 -259 4 -279 -7z m338 -150 c7 -7 12 -40 12 -80 0 -56 -3 -69 -19
-78 -26 -14 -74 -13 -89 2 -17 17 -16 155 1 161 24 10 83 7 95 -5z"/>
<path d="M4250 2736 l-115 -43 -3 -44 c-2 -24 1 -125 7 -224 11 -175 12 -180
39 -215 39 -47 113 -87 193 -101 95 -17 379 -7 441 16 47 16 49 16 93 -5 37
-18 62 -21 154 -21 120 0 143 4 214 34 l48 20 39 -22 c78 -44 277 -44 393 -1
141 53 179 204 78 313 l-38 40 -89 -44 c-49 -24 -91 -45 -94 -47 -3 -2 10 -16
27 -30 18 -15 37 -39 42 -54 15 -41 -8 -53 -96 -51 -96 2 -135 23 -147 81 l-9
42 -61 0 c-90 0 -105 -7 -126 -55 -29 -68 -124 -95 -220 -62 -37 13 -42 31
-24 86 l7 24 -65 -6 c-73 -7 -135 -32 -143 -58 -9 -28 -62 -41 -185 -46 -132
-6 -183 7 -200 52 -6 15 -10 125 -10 246 0 202 -1 219 -17 218 -10 0 -70 -20
-133 -43z"/>
<path d="M5193 2737 c-40 -23 -73 -44 -73 -47 0 -3 39 -25 86 -48 l86 -43 66
37 c103 57 103 52 11 101 -44 23 -86 43 -93 42 -6 -1 -44 -20 -83 -42z"/>
<path d="M7058 2716 c-64 -22 -120 -44 -123 -48 -4 -4 -2 -91 5 -193 15 -218
17 -214 -78 -222 -77 -7 -129 3 -156 30 -13 13 -39 73 -61 142 -21 66 -43 123
-48 127 -6 3 -58 -10 -116 -31 -80 -27 -106 -40 -105 -53 1 -12 -22 -25 -94
-50 -187 -64 -298 -167 -264 -243 17 -37 103 -58 238 -57 91 0 120 4 162 22
l51 22 65 -32 c61 -30 74 -33 199 -38 148 -5 247 7 315 40 l43 20 47 -20 c146
-63 506 -52 774 24 48 13 110 33 136 43 l48 19 24 -25 c65 -67 191 -97 394
-91 127 3 147 6 193 29 51 25 51 25 101 8 80 -27 227 -49 331 -49 130 0 203
21 258 76 121 121 27 279 -187 316 -138 24 -272 -20 -454 -147 -74 -51 -107
-68 -153 -76 -66 -13 -169 -6 -258 17 -83 21 -91 34 -23 34 77 0 101 11 137
64 17 24 31 47 31 49 0 3 -39 8 -87 12 -138 10 -301 33 -460 65 -217 44 -302
40 -395 -19 -41 -26 -108 -101 -108 -121 0 -8 79 -40 99 -40 7 0 26 9 42 21
42 30 119 34 245 14 60 -10 115 -21 123 -25 19 -10 -180 -56 -301 -69 -186
-21 -386 -9 -431 23 -15 12 -18 38 -22 242 -3 126 -8 230 -12 230 -5 1 -61
-17 -125 -40z m-630 -403 c6 -20 9 -40 6 -45 -7 -11 -232 -10 -239 2 -6 10 38
32 125 61 83 27 95 25 108 -18z m2757 13 c37 -16 71 -59 59 -77 -16 -26 -320
17 -311 44 6 19 100 46 160 47 32 0 73 -6 92 -14z"/>
<path d="M5413 2596 c-40 -22 -73 -43 -73 -46 0 -3 40 -26 89 -49 l89 -44 81
47 c45 27 81 50 81 52 0 9 -161 84 -177 83 -10 -1 -51 -20 -90 -43z"/>
<path d="M5028 2577 c-36 -23 -70 -45 -73 -49 -8 -8 147 -88 170 -88 16 0 165
81 165 90 0 8 -168 90 -183 89 -6 -1 -42 -20 -79 -42z"/>
<path d="M2587 2509 c-37 -28 -75 -95 -83 -146 -20 -126 52 -200 234 -241 113
-25 757 -25 914 0 130 22 210 50 257 94 35 31 36 35 36 102 0 65 -3 74 -40
128 -60 85 -57 85 -190 40 -63 -21 -115 -40 -115 -41 0 -1 25 -27 56 -58 72
-72 72 -98 -1 -110 -87 -15 -690 -14 -780 2 -89 14 -165 43 -191 72 -22 24
-22 91 0 124 16 24 16 26 -6 34 -57 21 -65 21 -91 0z"/>
<path d="M3048 1982 c-37 -20 -68 -40 -68 -44 0 -3 35 -25 78 -48 l77 -42 66
36 c37 20 74 36 83 36 9 0 48 -16 87 -36 l71 -35 74 42 c41 23 74 45 74 49 0
7 -146 80 -160 80 -5 0 -36 -16 -69 -35 -32 -19 -67 -35 -76 -35 -9 0 -45 16
-79 35 -35 19 -69 35 -77 35 -8 -1 -44 -18 -81 -38z"/>
<path d="M3218 1833 c-27 -14 -48 -29 -48 -32 0 -7 102 -61 115 -61 15 0 115
54 115 62 0 11 -96 58 -117 58 -10 0 -39 -12 -65 -27z"/>
<path d="M5596 1714 c-22 -8 -41 -15 -42 -17 -2 -2 3 -27 11 -57 8 -30 15 -76
15 -102 0 -39 -4 -50 -22 -62 -30 -18 -168 -28 -243 -17 -46 7 -63 6 -74 -5
-61 -58 223 -88 333 -35 66 33 81 67 79 190 -1 57 -5 107 -10 111 -4 4 -26 1
-47 -6z"/>
<path d="M3157 1708 c-19 -7 -26 -15 -23 -26 3 -10 6 -59 8 -110 2 -78 -1 -95
-14 -103 -9 -5 -83 -9 -164 -10 -153 -1 -198 -11 -233 -52 -16 -20 0 -30 31
-19 29 11 143 0 143 -13 0 -29 -216 -47 -297 -25 -20 6 -46 22 -58 37 -20 26
-20 26 -1 59 33 56 -28 52 -68 -4 -45 -64 -16 -125 71 -151 151 -46 370 -4
407 76 9 20 18 23 64 23 29 0 75 6 102 13 40 10 58 10 90 1 50 -16 203 -17
281 -4 32 6 91 20 131 32 l71 20 23 -20 c12 -12 47 -26 78 -33 60 -12 178 -7
209 10 12 7 49 5 118 -6 89 -14 103 -14 136 0 22 9 43 28 53 46 14 28 14 34 0
62 -42 80 -184 77 -275 -6 -43 -39 -71 -48 -155 -48 -79 0 -131 15 -120 34 4
5 27 9 53 9 35 0 50 5 59 19 17 27 8 31 -61 31 -34 0 -106 7 -161 15 -55 8
-126 15 -158 15 -67 0 -120 -22 -115 -48 3 -15 18 -17 111 -18 135 0 158 -15
59 -38 -92 -21 -257 -25 -300 -7 l-32 13 0 119 c0 131 0 130 -63 107z m1063
-213 c44 -23 36 -35 -22 -35 -58 0 -98 8 -98 20 0 10 42 29 68 29 13 1 36 -6
52 -14z"/>
<path d="M8572 1704 l-32 -14 7 -58 c4 -31 7 -97 7 -145 l1 -88 29 3 c23 2 32
10 42 38 13 37 18 180 8 243 -7 40 -13 42 -62 21z"/>
<path d="M9078 1708 l-27 -9 5 -112 c7 -149 7 -150 51 -172 49 -24 239 -29
295 -8 64 25 84 78 51 134 -20 33 -32 35 -75 13 l-30 -16 33 -28 34 -28 -30
-12 c-40 -15 -220 -10 -237 8 -9 9 -12 44 -10 127 4 127 4 127 -60 103z"/>
<path d="M5272 1642 l-23 -18 50 -33 c28 -18 65 -52 82 -77 30 -44 55 -54 77
-32 30 30 -5 99 -72 144 -57 38 -81 42 -114 16z"/>
<path d="M8805 1626 c-18 -13 -18 -14 3 -25 26 -14 48 -14 74 0 21 11 21 12
-3 25 -31 17 -51 17 -74 0z"/>
<path d="M4784 1605 c-16 -13 -17 -16 -4 -25 20 -13 46 -13 72 1 21 11 21 12
3 25 -24 18 -46 18 -71 -1z"/>
<path d="M4921 1606 c-24 -13 -24 -14 -3 -25 26 -14 48 -14 74 0 21 11 21 12
3 25 -23 17 -43 17 -74 0z"/>
<path d="M5106 1575 c-19 -15 -19 -15 2 -38 30 -31 28 -55 -5 -68 -42 -16
-421 -7 -455 10 -29 15 -40 61 -16 61 9 0 9 3 0 12 -17 17 -60 -5 -72 -38 -17
-44 -2 -74 49 -98 42 -19 63 -21 251 -21 175 0 212 3 252 18 82 32 114 109 65
155 -27 26 -44 27 -71 7z"/>
<path d="M6611 1564 c-29 -8 -93 -34 -141 -58 -61 -31 -95 -43 -111 -39 -34 8
-49 22 -42 39 10 27 -41 15 -69 -16 -25 -29 -29 -30 -112 -30 l-86 0 -14 34
c-29 69 -124 96 -208 58 -39 -17 -47 -26 -61 -68 -16 -47 -16 -50 4 -66 24
-20 96 -32 150 -25 48 6 60 -7 18 -22 -34 -12 -180 -31 -218 -28 -34 3 -36
-17 -5 -34 17 -9 56 -14 103 -14 62 1 85 6 126 27 28 14 59 35 69 47 16 17 31
21 87 21 38 0 89 7 115 16 41 14 53 14 93 2 62 -18 382 -18 432 0 30 10 46 10
95 -3 108 -28 343 -13 472 30 40 13 46 13 70 -5 55 -39 181 -51 267 -25 35 10
60 12 89 5 23 -5 73 -11 111 -15 83 -7 134 12 149 58 19 53 -58 117 -142 117
-49 0 -100 -23 -161 -74 -43 -36 -44 -36 -138 -36 -92 0 -140 11 -128 31 4 5
28 9 54 9 47 0 71 12 71 37 0 9 -18 13 -62 13 -35 0 -112 7 -173 15 -60 8
-140 15 -177 15 -57 0 -71 -4 -98 -26 -28 -24 -30 -29 -17 -42 13 -12 21 -12
52 -2 39 13 189 6 214 -10 25 -15 -81 -31 -246 -37 -182 -6 -199 -4 -183 28
37 68 -108 111 -249 73z m149 -58 c19 -7 35 -17 35 -21 0 -17 -79 -26 -195
-23 -105 3 -112 4 -85 16 88 39 183 50 245 28z m-830 -12 c22 -9 40 -20 40
-25 0 -12 -147 -12 -154 0 -5 8 48 40 66 41 4 0 26 -7 48 -16z m1955 2 c52
-22 43 -36 -22 -36 -97 0 -131 18 -75 38 38 15 58 14 97 -2z"/>
<path d="M8337 1514 l-29 -15 38 -33 c45 -39 41 -66 -12 -91 -41 -19 -166 -39
-198 -31 -12 3 -27 1 -35 -3 -24 -15 36 -44 99 -49 180 -13 296 113 202 221
-18 21 -28 21 -65 1z"/>
<path d="M8858 1504 c-16 -8 -28 -18 -28 -22 0 -4 16 -20 35 -35 19 -15 35
-32 35 -37 0 -29 -179 -78 -239 -65 -14 3 -32 1 -40 -4 -23 -15 31 -42 97 -48
65 -6 153 15 189 46 26 22 63 81 63 100 0 23 -49 81 -68 81 -9 -1 -29 -8 -44
-16z"/>
<path d="M9273 1328 c-29 -14 -29 -24 -2 -38 16 -9 28 -9 50 0 34 14 35 18 12
36 -21 16 -31 16 -60 2z"/>
</g>
</svg>
