<?xml version="1.0" standalone="no"?>
<!DOCTYPE svg PUBLIC "-//W3C//DTD SVG 20010904//EN"
 "http://www.w3.org/TR/2001/REC-SVG-20010904/DTD/svg10.dtd">
<svg version="1.0" xmlns="http://www.w3.org/2000/svg"
 width="768.000000pt" height="768.000000pt" viewBox="0 0 768.000000 768.000000"
 preserveAspectRatio="xMidYMid meet">

<g transform="translate(0.000000,768.000000) scale(0.100000,-0.100000)"
fill="#000000" stroke="none">
<path d="M3610 6604 c-140 -7 -481 -73 -581 -113 -13 -5 -62 -24 -109 -42
-169 -64 -413 -205 -565 -326 -220 -174 -440 -450 -566 -707 -244 -503 -297
-1070 -147 -1578 27 -92 34 -100 80 -88 44 13 53 35 34 82 -12 28 -13 39 -3
51 16 21 225 101 317 122 41 9 93 21 115 26 22 5 152 15 289 21 378 18 545 1
971 -97 39 -9 99 -23 135 -31 36 -7 108 -25 160 -39 52 -14 145 -35 205 -46
280 -52 335 -58 591 -65 242 -7 257 -6 251 10 -4 10 -7 21 -7 26 0 22 -113 39
-389 60 -87 6 -192 22 -270 40 -69 16 -159 34 -199 41 -41 6 -70 15 -65 19 4
5 42 14 83 20 107 17 118 19 190 26 36 3 98 12 138 20 106 21 598 31 727 15
216 -27 526 -103 669 -165 17 -7 44 -18 59 -25 25 -10 28 -15 22 -41 -6 -26
-3 -31 27 -43 61 -26 64 -20 118 233 41 194 54 470 30 680 -68 615 -419 1183
-957 1548 -245 166 -569 293 -872 342 -118 19 -344 30 -481 24z m435 -148 c61
-9 132 -21 158 -28 37 -9 53 -9 67 0 15 9 19 8 22 -4 2 -11 44 -29 123 -55
189 -62 449 -201 598 -320 118 -95 247 -221 330 -322 211 -257 323 -476 407
-790 51 -193 68 -438 46 -662 -12 -120 -38 -263 -52 -283 -1 -2 -34 8 -72 22
-104 37 -314 92 -485 127 -106 21 -158 37 -172 50 -19 19 -20 34 -22 401 -1
210 1 386 4 391 4 6 11 3 18 -6 10 -13 19 -14 71 -4 53 11 59 15 62 39 2 15 0
34 -5 42 -4 7 -73 83 -153 167 -134 141 -279 296 -500 531 l-85 91 -125 12
c-69 8 -222 18 -340 24 -118 6 -278 16 -355 21 -287 19 -439 22 -468 11 -16
-6 -45 -30 -65 -53 -20 -23 -80 -89 -132 -147 -53 -58 -153 -172 -223 -253
-70 -81 -162 -184 -205 -230 -124 -132 -212 -237 -212 -252 0 -23 20 -30 86
-32 34 -1 66 -4 71 -7 17 -10 14 -724 -2 -737 -7 -6 -65 -19 -128 -30 -167
-28 -238 -47 -400 -109 -59 -22 -123 -43 -141 -47 -41 -7 -50 5 -60 86 -4 30
-12 89 -17 130 -30 236 3 561 82 810 155 490 452 872 881 1133 285 174 515
249 918 301 70 9 367 -3 475 -18z m-787 -593 c-4 -22 -22 -20 -26 1 -2 10 3
16 13 16 10 0 15 -7 13 -17z m202 -63 c0 -5 -4 -10 -10 -10 -5 0 -10 5 -10 10
0 6 5 10 10 10 6 0 10 -4 10 -10z m-94 -23 c46 -27 105 -83 209 -199 131 -146
305 -337 357 -393 46 -49 47 -59 6 -51 -22 4 -56 29 -101 74 -93 91 -517 564
-517 576 0 10 24 6 46 -7z m-79 -180 c150 -161 348 -386 398 -452 57 -74 56
-66 54 -494 0 -218 -4 -430 -7 -471 l-7 -75 -40 -7 c-75 -13 -169 -8 -235 12
-166 52 -365 77 -678 88 l-197 7 -6 70 c-4 39 -7 235 -8 436 l-1 366 26 39
c28 41 64 82 301 348 79 87 164 187 190 222 27 35 53 63 58 63 6 -1 74 -69
152 -152z m543 -54 c184 -189 330 -355 330 -375 0 -25 -36 2 -100 75 -40 45
-160 173 -266 284 -107 111 -194 207 -194 213 0 31 47 -10 230 -197z m203 5
c153 -172 300 -320 351 -353 29 -20 34 -40 10 -49 -18 -7 -219 192 -369 364
-46 52 -106 117 -134 145 -56 54 -61 65 -32 65 13 0 74 -61 174 -172z m442
-233 c51 -60 105 -121 119 -134 30 -28 34 -54 9 -49 -9 2 -82 75 -162 164 -80
89 -188 207 -239 262 -55 60 -91 106 -87 113 10 15 236 -209 360 -356z m-7
194 c41 -40 133 -134 205 -206 104 -106 129 -135 119 -145 -18 -18 -34 -6
-141 113 -51 57 -149 164 -217 237 -183 197 -159 198 34 1z m400 -551 c9 -9
12 -105 12 -372 0 -199 -4 -366 -8 -372 -4 -7 -23 -16 -42 -21 -41 -10 -236
-10 -247 1 -4 4 -7 118 -8 254 0 187 -3 253 -13 270 -20 34 -72 52 -149 52
-78 0 -132 -21 -180 -68 -40 -40 -45 -77 -43 -306 1 -99 2 -190 1 -200 0 -25
-13 -33 -96 -51 -53 -12 -74 -14 -90 -5 -17 9 -32 7 -74 -10 -41 -16 -56 -18
-67 -9 -12 9 -14 84 -14 424 0 226 3 415 7 418 3 4 230 7 503 7 372 0 499 -3
508 -12z"/>
<path d="M2910 5290 c0 -5 5 -10 10 -10 6 0 10 5 10 10 0 6 -4 10 -10 10 -5 0
-10 -4 -10 -10z"/>
<path d="M2962 4870 c-12 -5 -26 -20 -30 -32 -13 -35 2 -474 16 -491 16 -19
264 -33 321 -17 l41 11 0 227 c0 294 4 286 -136 296 -55 4 -119 9 -144 11 -25
3 -55 0 -68 -5z m182 -177 c9 -29 11 -247 3 -260 -5 -7 -16 -13 -27 -13 -26 0
-38 44 -46 167 -6 85 -4 107 7 114 23 15 57 10 63 -8z"/>
<path d="M2805 3659 c-88 -70 -82 -44 -77 -346 3 -211 8 -274 19 -298 49 -97
112 -138 213 -139 62 0 130 24 130 46 0 15 22 8 51 -16 60 -50 175 -42 224 15
l26 31 33 -38 c33 -38 34 -38 104 -38 97 1 132 24 174 114 32 67 30 203 -3
285 -14 34 -31 61 -41 63 -24 5 -98 -70 -98 -99 0 -13 9 -44 20 -68 23 -49 26
-91 8 -109 -23 -23 -99 -9 -120 22 -4 6 -8 41 -8 79 0 37 -2 67 -4 67 -2 0
-29 -12 -60 -26 -55 -25 -56 -26 -56 -68 0 -64 -43 -94 -115 -80 -40 7 -54 28
-37 53 37 52 43 72 32 106 -11 34 -11 34 -38 18 -46 -28 -83 -66 -103 -105
-25 -48 -64 -78 -105 -78 -50 0 -81 16 -100 52 -15 29 -16 62 -11 315 3 156 2
283 -1 283 -4 -1 -29 -19 -57 -41z"/>
<path d="M3326 3643 l-49 -46 41 -39 c23 -21 49 -38 59 -38 22 0 93 56 93 73
0 11 -79 97 -90 97 -3 0 -27 -21 -54 -47z"/>
<path d="M4443 3605 c-28 -19 -54 -38 -56 -42 -3 -5 0 -108 5 -229 6 -122 8
-233 4 -247 -12 -50 -131 -60 -161 -13 -14 21 -48 190 -61 299 -3 31 -8 57
-11 57 -11 0 -91 -45 -110 -62 -18 -17 -20 -25 -12 -46 11 -30 6 -36 -43 -51
-23 -8 -58 -35 -95 -74 -130 -140 -111 -287 37 -287 50 0 127 31 136 55 9 23
27 17 49 -17 31 -49 67 -70 132 -77 76 -9 138 3 179 34 l33 25 35 -24 c111
-75 414 -19 547 101 22 20 41 34 42 32 1 -2 13 -24 25 -49 47 -96 78 -115 187
-115 75 0 86 3 135 33 l54 33 51 -25 c99 -48 205 -59 265 -27 26 13 41 32 58
72 20 47 22 67 19 156 -3 88 -8 109 -33 160 -37 74 -96 110 -159 99 -42 -8
-109 -69 -136 -124 -36 -73 -93 -159 -117 -177 -19 -14 -41 -19 -77 -18 -50 1
-157 34 -162 50 -2 4 18 17 45 27 75 30 92 51 92 111 l0 52 -82 6 c-52 4 -128
20 -203 43 -165 50 -219 60 -249 46 -28 -13 -92 -121 -101 -172 -5 -28 -2 -42
14 -60 l20 -25 36 43 c20 23 44 42 53 42 42 1 242 -44 242 -54 0 -33 -241
-103 -387 -113 l-92 -6 -31 32 c-32 31 -32 33 -29 119 1 48 2 167 1 265 -2
204 -1 202 -89 142z m1279 -406 c11 -6 29 -31 39 -55 25 -56 14 -84 -35 -84
-39 0 -126 28 -126 41 0 16 49 87 67 98 23 13 30 13 55 0z m-1654 -60 l3 -46
-39 -7 c-49 -7 -102 2 -102 19 0 25 90 87 120 82 10 -1 16 -17 18 -48z"/>
<path d="M3431 3493 l-40 -47 -40 43 c-45 48 -52 47 -109 -12 -39 -40 -36 -50
20 -105 l34 -32 53 45 c29 25 55 45 57 45 3 0 18 -16 35 -35 17 -19 37 -35 44
-35 16 0 95 85 95 102 0 17 -74 78 -94 78 -8 0 -33 -21 -55 -47z"/>
<path d="M2462 3345 c-34 -31 -62 -63 -62 -70 0 -8 14 -37 31 -66 43 -73 47
-103 18 -123 -73 -47 -400 -52 -523 -8 -74 26 -101 67 -102 156 -1 78 -9 106
-30 106 -28 0 -59 -129 -58 -240 1 -88 22 -133 82 -172 75 -50 93 -53 327 -53
269 1 314 10 386 85 56 57 86 148 75 227 -8 62 -42 162 -64 191 l-18 23 -62
-56z"/>
<path d="M2055 2735 c-25 -24 -45 -49 -45 -54 0 -12 80 -81 95 -81 6 0 29 15
51 34 l40 34 33 -34 c19 -19 37 -34 41 -34 13 0 89 64 89 75 1 6 -19 30 -43
54 -49 48 -65 47 -105 -6 l-21 -28 -36 43 c-19 23 -40 42 -45 42 -5 0 -30 -20
-54 -45z"/>
<path d="M2150 2578 c-17 -18 -30 -37 -30 -43 0 -6 16 -26 35 -45 l35 -34 42
41 41 42 -33 28 c-55 46 -58 47 -90 11z"/>
<path d="M2081 2381 c-23 -17 -23 -22 -25 -177 l-1 -159 -104 -1 c-96 -1 -106
-2 -114 -22 -13 -28 -2 -52 21 -52 11 0 25 -7 32 -15 10 -12 6 -18 -22 -35
-18 -11 -45 -20 -59 -20 -36 0 -92 20 -106 39 -15 20 -16 71 -3 107 8 19 8 30
0 38 -31 30 -71 -108 -51 -175 10 -33 20 -44 54 -60 102 -46 225 -5 254 86 9
27 14 30 59 33 26 2 54 8 62 14 9 8 16 8 24 0 7 -7 40 -12 75 -12 71 0 152 27
190 62 27 25 25 26 67 -36 18 -27 116 -35 152 -11 24 15 28 15 59 1 51 -25
101 -21 121 9 35 53 6 186 -43 193 -34 5 -60 -14 -97 -73 -19 -29 -45 -59 -57
-65 -24 -13 -77 -6 -104 14 -18 13 -17 15 18 29 30 13 37 21 37 43 0 18 -4 25
-13 21 -13 -5 -99 10 -182 32 -70 18 -83 15 -105 -29 -21 -42 -26 -80 -10 -80
5 0 13 6 17 13 22 34 41 39 93 26 28 -7 49 -17 47 -23 -10 -30 -209 -64 -245
-42 -10 6 -12 51 -12 173 1 90 0 166 -2 168 -2 2 -14 -4 -27 -14z m643 -283
c9 -12 16 -31 16 -42 0 -16 -5 -18 -37 -13 -50 9 -59 20 -37 51 23 31 38 32
58 4z"/>
<path d="M3592 2373 c-19 -17 -19 -23 -9 -146 11 -139 4 -177 -33 -177 -17 0
-20 7 -20 53 0 56 -31 142 -69 196 -27 38 -34 38 -52 5 -12 -23 -11 -30 9 -62
34 -55 69 -133 77 -169 l7 -33 -46 0 c-38 0 -48 -4 -66 -30 l-21 -30 26 -10
c34 -13 120 -13 166 0 60 17 69 51 69 250 0 94 -4 170 -9 170 -5 0 -18 -8 -29
-17z"/>
<path d="M5392 2357 c-21 -23 -22 -31 -21 -210 0 -103 4 -187 9 -187 4 0 15
11 23 23 12 19 16 64 19 210 2 103 0 187 -3 187 -3 0 -15 -10 -27 -23z"/>
<path d="M5703 2373 c-17 -6 -18 -331 -2 -367 15 -32 68 -50 126 -42 58 8 80
20 99 58 17 32 13 117 -6 148 -8 13 -11 12 -24 -5 -11 -14 -14 -32 -10 -64 5
-31 3 -46 -7 -52 -21 -13 -113 -11 -127 3 -8 8 -12 60 -12 170 0 161 -1 166
-37 151z"/>
<path d="M5508 2265 c-10 -22 -9 -28 3 -36 22 -14 37 -11 48 10 8 13 7 22 -2
28 -30 24 -37 23 -49 -2z"/>
<path d="M3073 2241 c-10 -15 -9 -22 6 -35 25 -23 40 -20 47 10 10 41 -31 60
-53 25z"/>
<path d="M3184 2229 c-17 -18 -17 -21 -1 -37 13 -13 21 -14 35 -6 24 16 26 37
3 51 -16 10 -22 8 -37 -8z"/>
<path d="M3288 2189 c-16 -27 -16 -33 -3 -59 18 -35 19 -69 3 -75 -28 -9 -188
-12 -229 -5 -50 9 -79 39 -79 81 0 16 -4 29 -8 29 -15 0 -32 -50 -32 -94 0
-82 64 -109 235 -100 117 6 140 19 161 91 14 48 15 64 4 110 -7 29 -18 53 -24
53 -6 0 -19 -14 -28 -31z"/>
<path d="M4181 2183 c-19 -9 -60 -41 -91 -70 -32 -29 -60 -53 -63 -53 -3 0 -3
23 0 50 8 65 -13 68 -45 7 -22 -42 -65 -77 -95 -77 -10 0 -17 16 -21 50 -8 57
-33 90 -71 90 -32 0 -60 -32 -80 -88 -29 -86 -13 -122 55 -122 21 0 41 -4 45
-9 13 -23 -69 -73 -121 -74 -65 -2 -28 -67 37 -67 47 0 93 31 124 83 15 26 36
47 49 51 12 3 39 17 60 31 36 24 39 25 51 8 16 -21 137 -34 198 -21 52 12 67
12 141 -1 96 -16 225 15 265 63 17 20 31 20 31 1 0 -9 11 -27 25 -40 19 -20
34 -25 77 -25 31 0 62 6 75 15 19 13 25 13 57 0 44 -18 100 -19 114 -2 18 22
25 92 13 130 -6 19 -22 44 -35 56 -36 34 -66 24 -103 -34 -61 -96 -87 -111
-148 -83 -29 13 -28 32 3 36 12 2 24 15 31 33 5 16 9 29 8 30 -1 1 -27 3 -57
4 -30 2 -84 13 -119 24 -91 30 -113 28 -133 -11 -34 -65 -27 -97 13 -64 32 27
63 28 128 4 30 -11 21 -19 -44 -43 -56 -21 -190 -24 -208 -6 -6 6 -10 27 -9
45 7 73 -82 118 -157 79z m96 -74 c20 -17 16 -37 -12 -55 -20 -13 -39 -15 -87
-10 -34 3 -64 8 -66 11 -8 8 27 42 61 59 33 17 80 15 104 -5z m687 -11 c9 -12
16 -31 16 -42 0 -16 -5 -18 -42 -12 -57 9 -63 17 -38 49 26 33 44 34 64 5z
m-1160 -20 c21 -29 20 -38 -3 -38 -32 0 -51 11 -51 29 0 37 31 42 54 9z"/>
<path d="M5231 2127 c-21 -34 -21 -34 -1 -72 24 -47 24 -57 5 -95 -22 -42 -78
-73 -116 -65 l-31 7 16 -30 c26 -50 71 -56 123 -16 65 49 83 122 58 232 -9 40
-20 72 -25 72 -5 0 -18 -15 -29 -33z"/>
<path d="M5566 2111 c-19 -21 -20 -34 -4 -78 24 -67 -36 -136 -118 -136 -51 0
-57 -15 -18 -46 79 -62 194 27 194 150 0 48 -16 115 -29 123 -5 3 -16 -3 -25
-13z"/>
<path d="M5814 1889 c-17 -19 -17 -20 4 -41 21 -21 22 -21 42 -3 26 23 25 29
-4 48 -22 15 -25 15 -42 -4z"/>
</g>
</svg>
